<svg height="20" viewBox="0 0 20 20" width="20" xmlns="http://www.w3.org/2000/svg"><path d="m20 10.2504514c0 2.2333883-.6358507 4.2421031-1.9075521 6.0261443-1.2717014 1.7840413-2.9144965 3.0186334-4.9283854 3.7037764-.234375.0444898-.405816.013347-.5143229-.0934286-.108507-.1067755-.1627605-.2402449-.1627604-.4004082v-2.8162048c0-.8631022-.2256945-1.4948575-.6770834-1.8952657.4947917-.0533878.9396702-.1334695 1.3346354-.240245.3949653-.1067756.8029514-.2802858 1.2239584-.5205307.4210069-.240245.7725694-.5361022 1.0546875-.8875717.282118-.3514695.5121527-.8186124.6901041-1.4014289.1779514-.5828164.2669271-1.252388.2669271-2.00871475 0-1.07665332-.3428819-1.99314333-1.0286458-2.74947005.3211806-.80971448.2864583-1.71730653-.1041667-2.72277615-.2430555-.08008165-.594618-.03114286-1.0546875.14681636-.4600694.17795922-.859375.37371436-1.1979166.58726544l-.4947917.32032661c-.8072917-.23134699-1.640625-.34702049-2.5-.34702049-.85937501 0-1.69270834.1156735-2.5.34702049-.13888889-.09787757-.3233507-.21800004-.55338542-.36036742s-.59244791-.31365313-1.08723959-.51385727c-.49479167-.20020413-.86805556-.26026537-1.11979166-.18018372-.38194444 1.00546964-.41232638 1.91306168-.09114583 2.72277615-.68576389.75632672-1.02864583 1.67281673-1.02864583 2.74947005 0 .75632675.0889757 1.42367385.26692709 2.00204135.17795139.5783674.40581597 1.0455104.68359375 1.4014289.27777777.3559184.62717013.6540001 1.04817708.8942451.42100695.2402449.82899306.4137552 1.22395832.5205307s.83984374.1868572 1.33463542.240245c-.34722222.3203266-.55989583.7785716-.63802083 1.374735-.18229167.0889796-.37760417.1557143-.58593751.2002041-.20833333.0444898-.45572916.0667347-.74218748.0667347s-.57074652-.095653-.8528646-.2869592-.52300349-.4693675-.72265623-.8341839c-.16493056-.2847348-.37543403-.5160818-.63151042-.694041-.2560764-.1779592-.47092014-.2847348-.64453125-.3203266l-.26041668-.0400408c-.18229166 0-.30815972.0200204-.37760415.0600612-.06944444.0400408-.09114583.0912041-.06510417.1534899.02604165.0622857.06510415.1245714.1171875.1868571.05208334.0622858.10850695.1156735.16927082.1601633l.09114583.0667348c.19097223.0889796.37977432.2580408.56640626.5071837s.32335069.476041.41015625.6806941l.13020834.3069797c.11284721.3381225.30381943.6117348.57291666.8208369.26909722.2091021.55989583.3425715.87239582.4004082.3125.0578368.6141493.0889797.90494793.0934286.29079862.004449.53168404-.0111224.72265625-.0467143l.29947917-.0533877c0 .3381225.00217013.7340818.00651041 1.1878778.00434027.453796.00651041.694041.00651041.7207349 0 .1601633-.05642361.2936327-.16927083.4004082-.11284721.1067756-.28645832.1379185-.52083333.0934286-2.0138889-.685143-3.65668403-1.9197351-4.92838541-3.7037764-1.27170138-1.7840412-1.90755209-3.792756-1.90755209-6.0261443 0-1.85967388.44704861-3.57475592 1.34114584-5.14524609.89409722-1.57049017 2.10720486-2.81398027 3.63932292-3.73047028 1.53211806-.91649002 3.20529514-1.37473503 5.01953124-1.37473503s3.4874132.45824501 5.0195312 1.37473503c1.5321181.91649001 2.7452257 2.15998011 3.639323 3.73047028.8940972 1.57049017 1.3411458 3.28557221 1.3411458 5.14524609z" fill="#555"/></svg>